<?xml version="1.0" standalone="no"?>
<!DOCTYPE svg PUBLIC "-//W3C//DTD SVG 20010904//EN"
 "http://www.w3.org/TR/2001/REC-SVG-20010904/DTD/svg10.dtd">
<svg version="1.0" xmlns="http://www.w3.org/2000/svg"
 width="320.000000pt" height="233.000000pt" viewBox="0 0 320.000000 233.000000"
 preserveAspectRatio="xMidYMid meet">
<metadata>
Created by potrace 1.16, written by Peter Selinger 2001-2019
</metadata>
<g transform="translate(0.000000,233.000000) scale(0.100000,-0.100000)"
fill="#000000" stroke="none">
<path d="M2205 2303 c-39 -10 -192 -76 -320 -139 -172 -84 -238 -136 -277
-220 -16 -35 -31 -64 -33 -64 -1 0 -16 28 -33 63 -45 90 -122 143 -357 244
-307 133 -417 135 -549 13 -92 -85 -336 -283 -495 -400 l-141 -105 0 -729 c0
-401 3 -726 6 -723 4 4 24 -7 45 -24 22 -17 39 -27 39 -22 0 4 4 4 8 -2 23
-32 46 -32 107 1 33 17 80 35 105 39 25 4 59 14 75 23 17 8 63 17 105 18 41 2
102 6 135 10 34 4 77 2 99 -4 32 -9 45 -8 75 7 61 31 141 45 256 46 131 0 210
-18 363 -83 113 -47 166 -61 176 -44 4 7 15 7 34 0 23 -9 38 -5 102 27 136 68
243 104 361 121 141 19 231 6 357 -54 48 -22 61 -24 150 -20 55 3 116 13 142
23 54 20 302 30 365 14 22 -6 52 -13 68 -16 l27 -5 0 709 0 709 -157 109 c-87
60 -242 175 -346 255 -239 186 -271 207 -315 220 -38 10 -141 12 -177 3z m65
-439 c143 -72 262 -224 309 -394 51 -182 7 -409 -108 -567 -53 -74 -96 -96
-446 -233 -195 -76 -310 -136 -367 -191 -28 -27 -55 -49 -60 -49 -5 0 -29 19
-54 43 -72 69 -137 102 -349 176 -453 157 -467 166 -555 353 -128 275 -72 572
147 767 113 101 221 131 354 97 97 -25 154 -55 268 -142 102 -77 106 -79 160
-78 68 0 93 13 194 97 132 110 239 155 368 156 57 1 77 -4 139 -35z"/>
</g>
</svg>
